<?xml version="1.0" standalone="no"?>
<!DOCTYPE svg PUBLIC "-//W3C//DTD SVG 20010904//EN"
 "http://www.w3.org/TR/2001/REC-SVG-20010904/DTD/svg10.dtd">
<svg version="1.0" xmlns="http://www.w3.org/2000/svg"
 width="258.000000pt" height="266.000000pt" viewBox="0 0 258.000000 266.000000"
 preserveAspectRatio="xMidYMid meet">

<g transform="translate(0.000000,266.000000) scale(0.100000,-0.100000)"
fill="#000000" stroke="none">
<path d="M0 1330 l0 -1330 1215 0 c1064 0 1213 2 1209 15 -4 9 1 18 12 22 11
3 22 11 26 17 19 27 6 35 -54 38 -60 3 -63 4 -63 28 0 20 4 25 24 22 15 -1 30
7 42 22 11 14 28 27 38 31 29 9 71 -12 71 -35 0 -16 7 -20 30 -20 l30 0 0
1260 0 1260 -1290 0 -1290 0 0 -1330z m240 1180 c0 -5 -4 -10 -10 -10 -5 0
-10 5 -10 10 0 6 5 10 10 10 6 0 10 -4 10 -10z m123 -22 c9 -5 17 -15 17 -23
0 -13 3 -13 20 -3 14 9 22 10 31 1 16 -16 -8 -56 -31 -50 -10 2 -24 1 -31 -4
-10 -6 -5 -9 15 -9 24 0 27 -3 23 -21 -5 -18 -2 -20 17 -15 14 3 28 -1 38 -13
9 -11 43 -25 75 -32 32 -7 60 -14 62 -16 2 -1 -4 -12 -14 -23 -16 -18 -17 -22
-3 -37 8 -10 18 -26 21 -35 4 -10 11 -18 16 -18 5 0 13 -9 16 -20 3 -11 13
-20 21 -20 23 0 16 -20 -11 -30 -14 -5 -25 -13 -25 -18 0 -11 -204 -2 -208 9
-2 5 -10 9 -17 9 -8 0 -21 16 -30 35 -9 19 -23 39 -31 46 -8 6 -14 17 -14 24
0 7 -7 18 -15 25 -18 15 -20 61 -3 78 15 15 -36 35 -65 26 -18 -6 -19 -3 -14
30 3 19 1 38 -4 41 -14 9 -11 25 6 25 8 0 15 9 15 20 0 13 7 20 20 20 11 0 20
4 20 10 0 10 54 3 83 -12z m757 -1048 c0 -5 -5 -10 -11 -10 -5 0 -7 5 -4 10 3
6 8 10 11 10 2 0 4 -4 4 -10z m246 -36 c22 -6 60 -77 49 -93 -3 -6 -3 -21 1
-35 6 -27 33 -40 76 -38 35 3 41 -9 23 -44 -8 -16 -18 -44 -21 -62 -6 -29 -10
-33 -28 -27 -11 4 -36 9 -53 12 -39 6 -39 7 -13 33 28 28 25 43 -12 65 -18 10
-34 18 -35 17 -11 -9 -43 1 -43 13 0 9 -9 15 -24 15 -23 0 -76 41 -76 59 0 5
9 13 20 16 11 3 20 12 20 20 0 15 56 53 80 54 8 0 24 -2 36 -5z m-123 -211
c-7 -2 -21 -2 -30 0 -10 3 -4 5 12 5 17 0 24 -2 18 -5z m767 -83 c0 -5 -2 -10
-4 -10 -3 0 -8 5 -11 10 -3 6 -1 10 4 10 6 0 11 -4 11 -10z m-470 -61 c0 -11
-21 -11 -39 0 -9 6 -5 9 13 9 14 0 26 -4 26 -9z m100 3 c0 -23 -34 -52 -60
-52 -29 0 -53 21 -32 28 6 2 8 10 5 18 -4 11 5 14 41 14 25 0 46 -3 46 -8z
m-10 -87 c0 -8 8 -15 19 -15 14 0 21 -10 26 -37 7 -35 8 -36 14 -13 8 31 46
35 46 5 0 -11 4 -23 9 -26 9 -7 -21 -59 -35 -59 -4 0 -13 9 -19 20 -7 13 -21
20 -40 20 -31 0 -31 0 -34 68 -1 9 -5 20 -10 23 -10 8 1 29 15 29 5 0 9 -7 9
-15z m182 -72 c10 -9 18 -28 18 -43 0 -23 -5 -29 -32 -34 -31 -6 -55 3 -30 11
6 3 12 13 12 23 0 10 5 22 10 25 8 5 7 11 -1 21 -16 19 0 18 23 -3z m273 -243
c3 -5 0 -10 -7 -11 -7 -1 -2 -4 12 -8 32 -9 60 -55 43 -72 -9 -9 -16 -9 -28 1
-10 8 -15 9 -15 1 0 -6 -9 -11 -20 -11 -25 0 -25 -9 -3 -26 23 -16 11 -28 -22
-20 -14 4 -25 14 -25 23 0 9 -15 29 -32 45 -29 25 -31 29 -16 38 9 6 24 18 33
26 9 9 25 14 35 11 11 -3 20 -1 20 4 0 12 17 11 25 -1z m150 -130 c-3 -5 -10
-10 -16 -10 -5 0 -9 5 -9 10 0 6 7 10 16 10 8 0 12 -4 9 -10z m-58 -15 c3 -9
3 -19 -1 -22 -7 -7 -36 16 -36 28 0 15 30 10 37 -6z m56 -42 c9 -9 -13 -34
-24 -27 -14 8 -11 34 4 34 8 0 17 -3 20 -7z m-51 -39 c15 -3 41 -21 58 -40 35
-41 46 -42 54 -8 l7 25 24 -23 c28 -27 31 -38 10 -38 -21 0 -21 -68 1 -77 9
-3 14 -13 11 -24 -3 -12 0 -19 9 -19 9 0 14 -11 14 -30 0 -32 -23 -42 -34 -15
-3 8 -15 15 -26 15 -23 0 -27 28 -9 62 6 12 7 18 1 14 -13 -8 -27 12 -36 47
-7 30 -46 40 -46 11 0 -26 -25 -10 -28 18 -3 23 -16 33 -46 36 -12 1 -26 24
-26 45 0 13 5 17 18 13 9 -3 29 -8 44 -12z m-92 -14 c0 -5 -4 -10 -10 -10 -5
0 -10 5 -10 10 0 6 5 10 10 10 6 0 10 -4 10 -10z m-10 -110 c0 -18 -37 -31
-49 -16 -6 7 -8 16 -4 19 10 11 53 8 53 -3z m338 -50 c1 -55 -4 -59 -36 -31
-27 23 -27 27 -1 34 17 5 19 9 9 26 -9 18 -8 21 8 21 15 0 19 -8 20 -50z"/>
<path d="M1355 1360 c3 -5 8 -10 11 -10 2 0 4 5 4 10 0 6 -5 10 -11 10 -5 0
-7 -4 -4 -10z"/>
<path d="M2060 590 c0 -5 5 -10 10 -10 6 0 10 5 10 10 0 6 -4 10 -10 10 -5 0
-10 -4 -10 -10z"/>
</g>
</svg>
